<mxfile host="app.diagrams.net" modified="2024-06-28T06:41:52.398Z" agent="Mozilla/5.0 (X11; Linux x86_64) AppleWebKit/537.36 (KHTML, like Gecko) Chrome/108.0.0.0 Safari/537.36" etag="9WQZwGBV1pubrXop59Ml" version="24.6.2" type="github">
  <diagram name="第 1 页" id="yPfUAUeXSrQnQ1OBQEqH">
    <mxGraphModel dx="2309" dy="823" grid="1" gridSize="10" guides="1" tooltips="1" connect="1" arrows="1" fold="1" page="1" pageScale="1" pageWidth="827" pageHeight="1169" math="0" shadow="0">
      <root>
        <mxCell id="0" />
        <mxCell id="1" parent="0" />
        <object label="机构A" id="vHTpHwCi1XQWNLg5JPhF-3">
          <mxCell style="shape=umlActor;verticalLabelPosition=bottom;verticalAlign=top;html=1;outlineConnect=0;movable=1;resizable=1;rotatable=1;deletable=1;editable=1;locked=0;connectable=1;" parent="1" vertex="1">
            <mxGeometry x="120" y="200" width="30" height="60" as="geometry" />
          </mxCell>
        </object>
        <mxCell id="vHTpHwCi1XQWNLg5JPhF-5" value="机构B" style="shape=umlActor;verticalLabelPosition=bottom;verticalAlign=top;html=1;outlineConnect=0;" parent="1" vertex="1">
          <mxGeometry x="570" y="200" width="30" height="60" as="geometry" />
        </mxCell>
        <mxCell id="vHTpHwCi1XQWNLg5JPhF-6" value="" style="endArrow=none;html=1;rounded=0;" parent="1" edge="1">
          <mxGeometry width="50" height="50" relative="1" as="geometry">
            <mxPoint x="134.5" y="660" as="sourcePoint" />
            <mxPoint x="134.5" y="290" as="targetPoint" />
          </mxGeometry>
        </mxCell>
        <mxCell id="MCdk1gzpMtM_U1JSzoyn-1" value="CA中心" style="shape=umlActor;verticalLabelPosition=bottom;verticalAlign=top;html=1;outlineConnect=0;" vertex="1" parent="1">
          <mxGeometry x="300" y="200" width="30" height="60" as="geometry" />
        </mxCell>
        <mxCell id="MCdk1gzpMtM_U1JSzoyn-2" value="" style="endArrow=none;html=1;rounded=0;" edge="1" parent="1">
          <mxGeometry width="50" height="50" relative="1" as="geometry">
            <mxPoint x="314.5" y="660" as="sourcePoint" />
            <mxPoint x="314.5" y="290" as="targetPoint" />
          </mxGeometry>
        </mxCell>
        <mxCell id="MCdk1gzpMtM_U1JSzoyn-3" value="" style="endArrow=classic;html=1;rounded=0;" edge="1" parent="1">
          <mxGeometry width="50" height="50" relative="1" as="geometry">
            <mxPoint x="140" y="320" as="sourcePoint" />
            <mxPoint x="310" y="320" as="targetPoint" />
          </mxGeometry>
        </mxCell>
        <mxCell id="MCdk1gzpMtM_U1JSzoyn-4" value="申请证书" style="edgeLabel;html=1;align=center;verticalAlign=middle;resizable=0;points=[];" vertex="1" connectable="0" parent="MCdk1gzpMtM_U1JSzoyn-3">
          <mxGeometry x="-0.0141" y="-1" relative="1" as="geometry">
            <mxPoint as="offset" />
          </mxGeometry>
        </mxCell>
        <mxCell id="MCdk1gzpMtM_U1JSzoyn-5" value="" style="sketch=0;aspect=fixed;pointerEvents=1;shadow=0;dashed=0;html=1;strokeColor=none;labelPosition=center;verticalLabelPosition=bottom;verticalAlign=top;align=center;fillColor=#00188D;shape=mxgraph.mscae.enterprise.internet" vertex="1" parent="1">
          <mxGeometry x="-230" y="280" width="161.29" height="100" as="geometry" />
        </mxCell>
        <mxCell id="MCdk1gzpMtM_U1JSzoyn-6" value="" style="sketch=0;aspect=fixed;pointerEvents=1;shadow=0;dashed=0;html=1;strokeColor=none;labelPosition=center;verticalLabelPosition=bottom;verticalAlign=top;align=center;fillColor=#00188D;shape=mxgraph.mscae.enterprise.database_server" vertex="1" parent="1">
          <mxGeometry x="-200" y="535" width="38" height="50" as="geometry" />
        </mxCell>
        <mxCell id="MCdk1gzpMtM_U1JSzoyn-7" value="" style="sketch=0;aspect=fixed;pointerEvents=1;shadow=0;dashed=0;html=1;strokeColor=none;labelPosition=center;verticalLabelPosition=bottom;verticalAlign=top;align=center;fillColor=#00188D;shape=mxgraph.mscae.enterprise.web_server" vertex="1" parent="1">
          <mxGeometry x="-107" y="660" width="53.2" height="70" as="geometry" />
        </mxCell>
        <mxCell id="MCdk1gzpMtM_U1JSzoyn-8" value="" style="sketch=0;aspect=fixed;pointerEvents=1;shadow=0;dashed=0;html=1;strokeColor=none;labelPosition=center;verticalLabelPosition=bottom;verticalAlign=top;align=center;fillColor=#00188D;shape=mxgraph.azure.user" vertex="1" parent="1">
          <mxGeometry x="490" y="500" width="47" height="50" as="geometry" />
        </mxCell>
        <mxCell id="MCdk1gzpMtM_U1JSzoyn-9" value="" style="sketch=0;aspect=fixed;pointerEvents=1;shadow=0;dashed=0;html=1;strokeColor=none;labelPosition=center;verticalLabelPosition=bottom;verticalAlign=top;align=center;fillColor=#00188D;shape=mxgraph.mscae.enterprise.workstation_client" vertex="1" parent="1">
          <mxGeometry x="440" y="620" width="50" height="50" as="geometry" />
        </mxCell>
      </root>
    </mxGraphModel>
  </diagram>
</mxfile>
